<?xml version="1.0" encoding="UTF-8" standalone="no"?>
<!DOCTYPE svg PUBLIC "-//W3C//DTD SVG 1.1//EN"
 "http://www.w3.org/Graphics/SVG/1.1/DTD/svg11.dtd">
<!-- Generated by graphviz version 14.1.0 (20251206.1807)
 -->
<!-- Title: mfem::VectorFEDomainLFDivIntegrator Pages: 1 -->
<!--zoomable 566 -->

<svg id="main" version="1.1" xmlns="http://www.w3.org/2000/svg" xmlns:xlink="http://www.w3.org/1999/xlink" xml:space="preserve" onload="init(evt)">
<style type="text/css"><![CDATA[
.node, .edge {opacity: 0.7;}
.node.selected, .edge.selected {opacity: 1;}
.edge:hover path { stroke: red; }
.edge:hover polygon { stroke: red; fill: red; }
]]></style>

<defs>
  <circle id="rim" cx="0" cy="0" r="7"/>
  <circle id="rim2" cx="0" cy="0" r="3.5"/>
  <g id="zoomPlus">
    <use xlink:href="#rim" fill="#404040"><set attributeName="fill" to="#808080" begin="zoomplus.mouseover" end="zoomplus.mouseout"/></use>
    <path d="M-4,0h8M0,-4v8" fill="none" stroke="white" stroke-width="1.5" pointer-events="none"/>
  </g>
  <g id="zoomMin">
    <use xlink:href="#rim" fill="#404040"><set attributeName="fill" to="#808080" begin="zoomminus.mouseover" end="zoomminus.mouseout"/></use>
    <path d="M-4,0h8" fill="none" stroke="white" stroke-width="1.5" pointer-events="none"/>
  </g>
  <g id="arrowUp" transform="translate(30 24)">
    <use xlink:href="#rim"/>
    <path pointer-events="none" fill="none" stroke="white" stroke-width="1.5" d="M0,-3.0v7 M-2.5,-0.5L0,-3.0L2.5,-0.5"/>
  </g>
  <g id="arrowRight" transform="rotate(90) translate(36 -43)">
    <use xlink:href="#rim"/>
    <path pointer-events="none" fill="none" stroke="white" stroke-width="1.5" d="M0,-3.0v7 M-2.5,-0.5L0,-3.0L2.5,-0.5"/>
  </g>
  <g id="arrowDown" transform="rotate(180) translate(-30 -48)">
    <use xlink:href="#rim"/>
    <path pointer-events="none" fill="none" stroke="white" stroke-width="1.5" d="M0,-3.0v7 M-2.5,-0.5L0,-3.0L2.5,-0.5"/>
  </g>
  <g id="arrowLeft" transform="rotate(270) translate(-36 17)">
    <use xlink:href="#rim"/>
    <path pointer-events="none" fill="none" stroke="white" stroke-width="1.5" d="M0,-3.0v7 M-2.5,-0.5L0,-3.0L2.5,-0.5"/>
  </g>
  <g id="resetDef">
    <use xlink:href="#rim2" fill="#404040"><set attributeName="fill" to="#808080" begin="reset.mouseover" end="reset.mouseout"/></use>
  </g>
</defs>
<script type="application/ecmascript">
var viewWidth = 759;
var viewHeight = 566;
var sectionId = 'dynsection-1';
</script>
<script type="application/ecmascript" xlink:href="svg.min.js"/>
<svg id="graph" class="graph">
<g id="viewport">
<title>mfem::VectorFEDomainLFDivIntegrator</title>
<!-- Node1 -->
<g id="Node000001" class="node">
<title>Node1</title>
<g id="a_Node000001"><a xlink:title="for RT Elements">
<polygon fill="#999999" stroke="#666666" points="618.12,-38 420.62,-38 420.62,0 618.12,0 618.12,-38"/>
<text xml:space="preserve" text-anchor="start" x="428.62" y="-20.7" font-family="Helvetica,sans-Serif" font-size="14.00">mfem::VectorFEDomainLFDiv</text>
<text xml:space="preserve" text-anchor="middle" x="519.38" y="-5.7" font-family="Helvetica,sans-Serif" font-size="14.00">Integrator</text>
</a>
</g>
</g>
<!-- Node2 -->
<g id="Node000002" class="node">
<title>Node2</title>
<g id="a_Node000002"><a xlink:href="classmfem_1_1DeltaLFIntegrator.html" target="_top" xlink:title="Abstract class for integrators that support delta coefficients.">
<polygon fill="white" stroke="#666666" points="601.25,-98 437.5,-98 437.5,-75 601.25,-75 601.25,-98"/>
<text xml:space="preserve" text-anchor="middle" x="519.38" y="-80.7" font-family="Helvetica,sans-Serif" font-size="14.00">mfem::DeltaLFIntegrator</text>
</a>
</g>
</g>
<!-- Node2&#45;&gt;Node1 -->
<g id="edge1_Node000001_Node000002" class="edge">
<title>Node2&#45;&gt;Node1</title>
<g id="a_edge1_Node000001_Node000002"><a xlink:title=" ">
<path fill="none" stroke="#63b8ff" d="M519.38,-63.36C519.38,-55.2 519.38,-46.05 519.38,-38.27"/>
<polygon fill="#63b8ff" stroke="#63b8ff" points="515.88,-63.17 519.38,-73.17 522.88,-63.17 515.88,-63.17"/>
</a>
</g>
</g>
<!-- Node3 -->
<g id="Node000003" class="node">
<title>Node3</title>
<g id="a_Node000003"><a xlink:href="classmfem_1_1LinearFormIntegrator.html" target="_top" xlink:title="Abstract base class LinearFormIntegrator.">
<polygon fill="white" stroke="#666666" points="380.5,-172 194.25,-172 194.25,-149 380.5,-149 380.5,-172"/>
<text xml:space="preserve" text-anchor="middle" x="287.38" y="-154.7" font-family="Helvetica,sans-Serif" font-size="14.00">mfem::LinearFormIntegrator</text>
</a>
</g>
</g>
<!-- Node3&#45;&gt;Node2 -->
<g id="edge2_Node000002_Node000003" class="edge">
<title>Node3&#45;&gt;Node2</title>
<g id="a_edge2_Node000002_Node000003"><a xlink:title=" ">
<path fill="none" stroke="#63b8ff" d="M333.39,-145.22C377.74,-131.46 443.89,-110.93 484.19,-98.42"/>
<polygon fill="#63b8ff" stroke="#63b8ff" points="332.57,-141.81 324.06,-148.12 334.64,-148.49 332.57,-141.81"/>
</a>
</g>
</g>
<!-- Node4 -->
<g id="Node000004" class="node">
<title>Node4</title>
<g id="a_Node000004"><a xlink:href="classmfem_1_1Integrator.html" target="_top" xlink:title="This base class implements some shared functionality between linear and nonlinear form integrators.">
<polygon fill="white" stroke="#666666" points="272.62,-246 156.12,-246 156.12,-223 272.62,-223 272.62,-246"/>
<text xml:space="preserve" text-anchor="middle" x="214.38" y="-228.7" font-family="Helvetica,sans-Serif" font-size="14.00">mfem::Integrator</text>
</a>
</g>
</g>
<!-- Node4&#45;&gt;Node3 -->
<g id="edge3_Node000003_Node000004" class="edge">
<title>Node4&#45;&gt;Node3</title>
<g id="a_edge3_Node000003_Node000004"><a xlink:title=" ">
<path fill="none" stroke="#63b8ff" d="M233.38,-214.75C247.17,-201.16 265.31,-183.26 276.66,-172.07"/>
<polygon fill="#63b8ff" stroke="#63b8ff" points="231.2,-211.99 226.54,-221.5 236.12,-216.97 231.2,-211.99"/>
</a>
</g>
</g>
<!-- Node5 -->
<g id="Node000005" class="node">
<title>Node5</title>
<g id="a_Node000005"><a xlink:href="classmfem_1_1IntegrationRule.html" target="_top" xlink:title="Class for an integration rule &#45; an Array of IntegrationPoint.">
<polygon fill="white" stroke="#666666" points="167.5,-320 17.25,-320 17.25,-297 167.5,-297 167.5,-320"/>
<text xml:space="preserve" text-anchor="middle" x="92.38" y="-302.7" font-family="Helvetica,sans-Serif" font-size="14.00">mfem::IntegrationRule</text>
</a>
</g>
</g>
<!-- Node5&#45;&gt;Node4 -->
<g id="edge4_Node000004_Node000005" class="edge">
<title>Node5&#45;&gt;Node4</title>
<g id="a_edge4_Node000004_Node000005"><a xlink:title=" ">
<path fill="none" stroke="#9a32cd" stroke-dasharray="5,2" d="M120.56,-290.87C143.79,-277.16 176.07,-258.1 196.07,-246.3"/>
<polygon fill="#9a32cd" stroke="#9a32cd" points="119.04,-287.7 112.21,-295.8 122.6,-293.73 119.04,-287.7"/>
</a>
</g>
<text xml:space="preserve" text-anchor="middle" x="187.55" y="-265.7" font-family="Helvetica,sans-Serif" font-size="14.00" fill="grey"> IntRule</text>
</g>
<!-- Node6 -->
<g id="Node000006" class="node">
<title>Node6</title>
<g id="a_Node000006"><a xlink:href="classmfem_1_1Array.html" target="_top" xlink:title=" ">
<polygon fill="white" stroke="#666666" points="175.75,-395 9,-395 9,-357 175.75,-357 175.75,-395"/>
<text xml:space="preserve" text-anchor="start" x="17" y="-377.7" font-family="Helvetica,sans-Serif" font-size="14.00">mfem::Array&lt; Integration</text>
<text xml:space="preserve" text-anchor="middle" x="92.38" y="-362.7" font-family="Helvetica,sans-Serif" font-size="14.00">Point &gt;</text>
</a>
</g>
</g>
<!-- Node6&#45;&gt;Node5 -->
<g id="edge5_Node000005_Node000006" class="edge">
<title>Node6&#45;&gt;Node5</title>
<g id="a_edge5_Node000005_Node000006"><a xlink:title=" ">
<path fill="none" stroke="#63b8ff" d="M92.38,-345.47C92.38,-336.57 92.38,-327.35 92.38,-320.47"/>
<polygon fill="#63b8ff" stroke="#63b8ff" points="88.88,-345.24 92.38,-355.24 95.88,-345.24 88.88,-345.24"/>
</a>
</g>
</g>
<!-- Node7 -->
<g id="Node000007" class="node">
<title>Node7</title>
<g id="a_Node000007"><a xlink:href="classmfem_1_1Memory.html" target="_top" xlink:title=" ">
<polygon fill="white" stroke="#666666" points="184.75,-484 0,-484 0,-446 184.75,-446 184.75,-484"/>
<text xml:space="preserve" text-anchor="start" x="8" y="-466.7" font-family="Helvetica,sans-Serif" font-size="14.00">mfem::Memory&lt; Integration</text>
<text xml:space="preserve" text-anchor="middle" x="92.38" y="-451.7" font-family="Helvetica,sans-Serif" font-size="14.00">Point &gt;</text>
</a>
</g>
</g>
<!-- Node7&#45;&gt;Node6 -->
<g id="edge6_Node000006_Node000007" class="edge">
<title>Node7&#45;&gt;Node6</title>
<g id="a_edge6_Node000006_Node000007"><a xlink:title=" ">
<path fill="none" stroke="#9a32cd" stroke-dasharray="5,2" d="M92.38,-434.36C92.38,-421.45 92.38,-406.72 92.38,-395.42"/>
<polygon fill="#9a32cd" stroke="#9a32cd" points="88.88,-434.04 92.38,-444.04 95.88,-434.04 88.88,-434.04"/>
</a>
</g>
<text xml:space="preserve" text-anchor="middle" x="107.38" y="-414.7" font-family="Helvetica,sans-Serif" font-size="14.00" fill="grey"> data</text>
</g>
<!-- Node8 -->
<g id="Node000008" class="node">
<title>Node8</title>
<g id="a_Node000008"><a xlink:href="classmfem_1_1IntegrationPoint.html" target="_top" xlink:title="Class for integration point with weight.">
<polygon fill="white" stroke="#666666" points="169,-558 15.75,-558 15.75,-535 169,-535 169,-558"/>
<text xml:space="preserve" text-anchor="middle" x="92.38" y="-540.7" font-family="Helvetica,sans-Serif" font-size="14.00">mfem::IntegrationPoint</text>
</a>
</g>
</g>
<!-- Node8&#45;&gt;Node7 -->
<g id="edge7_Node000007_Node000008" class="edge">
<title>Node8&#45;&gt;Node7</title>
<g id="a_edge7_Node000007_Node000008"><a xlink:title=" ">
<path fill="none" stroke="#9a32cd" stroke-dasharray="5,2" d="M92.38,-523.29C92.38,-511.05 92.38,-496.04 92.38,-484.45"/>
<polygon fill="#9a32cd" stroke="#9a32cd" points="88.88,-523.26 92.38,-533.26 95.88,-523.26 88.88,-523.26"/>
</a>
</g>
<text xml:space="preserve" text-anchor="middle" x="109.62" y="-503.7" font-family="Helvetica,sans-Serif" font-size="14.00" fill="grey"> h_ptr</text>
</g>
<!-- Node9 -->
<g id="Node000009" class="node">
<title>Node9</title>
<g id="a_Node000009"><a xlink:href="classmfem_1_1NURBSMeshRules.html" target="_top" xlink:title="Class for defining different integration rules on each NURBS patch.">
<polygon fill="white" stroke="#666666" points="359.5,-320 185.25,-320 185.25,-297 359.5,-297 359.5,-320"/>
<text xml:space="preserve" text-anchor="middle" x="272.38" y="-302.7" font-family="Helvetica,sans-Serif" font-size="14.00">mfem::NURBSMeshRules</text>
</a>
</g>
</g>
<!-- Node9&#45;&gt;Node4 -->
<g id="edge8_Node000004_Node000009" class="edge">
<title>Node9&#45;&gt;Node4</title>
<g id="a_edge8_Node000004_Node000009"><a xlink:title=" ">
<path fill="none" stroke="#9a32cd" stroke-dasharray="5,2" d="M256.65,-287.98C245.78,-274.48 231.73,-257.05 222.89,-246.07"/>
<polygon fill="#9a32cd" stroke="#9a32cd" points="253.62,-289.79 262.62,-295.39 259.07,-285.4 253.62,-289.79"/>
</a>
</g>
<text xml:space="preserve" text-anchor="middle" x="284.19" y="-265.7" font-family="Helvetica,sans-Serif" font-size="14.00" fill="grey"> patchRules</text>
</g>
<!-- Node10 -->
<g id="Node000010" class="node">
<title>Node10</title>
<g id="a_Node000010"><a xlink:href="classmfem_1_1DeltaCoefficient.html" target="_top" xlink:title="Delta function coefficient optionally multiplied by a weight coefficient and a scaled time dependent ...">
<polygon fill="white" stroke="#666666" points="740.38,-246 586.38,-246 586.38,-223 740.38,-223 740.38,-246"/>
<text xml:space="preserve" text-anchor="middle" x="663.38" y="-228.7" font-family="Helvetica,sans-Serif" font-size="14.00">mfem::DeltaCoefficient</text>
</a>
</g>
</g>
<!-- Node10&#45;&gt;Node2 -->
<g id="edge9_Node000002_Node000010" class="edge">
<title>Node10&#45;&gt;Node2</title>
<g id="a_edge9_Node000002_Node000010"><a xlink:title=" ">
<path fill="none" stroke="#9a32cd" stroke-dasharray="5,2" d="M656.68,-211.69C650.46,-193.69 639.95,-168.11 625.38,-149 606.66,-124.47 575.14,-108 551.32,-98.33"/>
<polygon fill="#9a32cd" stroke="#9a32cd" points="653.32,-212.66 659.75,-221.08 659.97,-210.48 653.32,-212.66"/>
</a>
</g>
<text xml:space="preserve" text-anchor="middle" x="656.09" y="-154.7" font-family="Helvetica,sans-Serif" font-size="14.00" fill="grey"> delta</text>
</g>
<!-- Node12 -->
<g id="Node000012" class="node">
<title>Node12</title>
<g id="a_Node000012"><a xlink:href="classmfem_1_1VectorDeltaCoefficient.html" target="_top" xlink:title="Vector coefficient defined by a scalar DeltaCoefficient and a constant vector direction.">
<polygon fill="white" stroke="#666666" points="615.88,-172 422.88,-172 422.88,-149 615.88,-149 615.88,-172"/>
<text xml:space="preserve" text-anchor="middle" x="519.38" y="-154.7" font-family="Helvetica,sans-Serif" font-size="14.00">mfem::VectorDeltaCoefficient</text>
</a>
</g>
</g>
<!-- Node10&#45;&gt;Node12 -->
<g id="edge16_Node000012_Node000010" class="edge">
<title>Node10&#45;&gt;Node12</title>
<g id="a_edge16_Node000012_Node000010"><a xlink:title=" ">
<path fill="none" stroke="#9a32cd" stroke-dasharray="5,2" d="M631.21,-217.42C603.72,-203.67 564.9,-184.26 540.98,-172.3"/>
<polygon fill="#9a32cd" stroke="#9a32cd" points="629.64,-220.55 640.15,-221.89 632.77,-214.29 629.64,-220.55"/>
</a>
</g>
<text xml:space="preserve" text-anchor="middle" x="609.9" y="-191.7" font-family="Helvetica,sans-Serif" font-size="14.00" fill="grey"> d</text>
</g>
<!-- Node11 -->
<g id="Node000011" class="node">
<title>Node11</title>
<g id="a_Node000011"><a xlink:href="classmfem_1_1Coefficient.html" target="_top" xlink:title="Base class Coefficients that optionally depend on space and time. These are used by the BilinearFormI...">
<polygon fill="white" stroke="#666666" points="750.62,-320 628.12,-320 628.12,-297 750.62,-297 750.62,-320"/>
<text xml:space="preserve" text-anchor="middle" x="689.38" y="-302.7" font-family="Helvetica,sans-Serif" font-size="14.00">mfem::Coefficient</text>
</a>
</g>
</g>
<!-- Node11&#45;&gt;Node10 -->
<g id="edge10_Node000010_Node000011" class="edge">
<title>Node11&#45;&gt;Node10</title>
<g id="a_edge10_Node000010_Node000011"><a xlink:title=" ">
<path fill="none" stroke="#63b8ff" d="M676.87,-286.81C675.58,-284.23 674.38,-281.59 673.38,-279 669.24,-268.3 666.54,-255.43 665.01,-246.48"/>
<polygon fill="#63b8ff" stroke="#63b8ff" points="673.74,-288.38 681.65,-295.44 679.86,-284.99 673.74,-288.38"/>
</a>
</g>
</g>
<!-- Node11&#45;&gt;Node10 -->
<g id="edge11_Node000010_Node000011" class="edge">
<title>Node11&#45;&gt;Node10</title>
<g id="a_edge11_Node000010_Node000011"><a xlink:title=" ">
<path fill="none" stroke="#9a32cd" stroke-dasharray="5,2" d="M681.61,-286.01C676.85,-272.82 670.97,-256.52 667.19,-246.07"/>
<polygon fill="#9a32cd" stroke="#9a32cd" points="678.22,-286.92 684.91,-295.14 684.81,-284.55 678.22,-286.92"/>
</a>
</g>
<text xml:space="preserve" text-anchor="middle" x="700.08" y="-265.7" font-family="Helvetica,sans-Serif" font-size="14.00" fill="grey"> weight</text>
</g>
<!-- Node12&#45;&gt;Node2 -->
<g id="edge12_Node000002_Node000012" class="edge">
<title>Node12&#45;&gt;Node2</title>
<g id="a_edge12_Node000002_Node000012"><a xlink:title=" ">
<path fill="none" stroke="#9a32cd" stroke-dasharray="5,2" d="M519.38,-137.2C519.38,-124.17 519.38,-108.31 519.38,-98.07"/>
<polygon fill="#9a32cd" stroke="#9a32cd" points="515.88,-137.05 519.38,-147.05 522.88,-137.05 515.88,-137.05"/>
</a>
</g>
<text xml:space="preserve" text-anchor="middle" x="550.12" y="-117.7" font-family="Helvetica,sans-Serif" font-size="14.00" fill="grey"> vec_delta</text>
</g>
<!-- Node13 -->
<g id="Node000013" class="node">
<title>Node13</title>
<g id="a_Node000013"><a xlink:href="classmfem_1_1VectorCoefficient.html" target="_top" xlink:title="Base class for vector Coefficients that optionally depend on time and space.">
<polygon fill="white" stroke="#666666" points="452.12,-246 290.62,-246 290.62,-223 452.12,-223 452.12,-246"/>
<text xml:space="preserve" text-anchor="middle" x="371.38" y="-228.7" font-family="Helvetica,sans-Serif" font-size="14.00">mfem::VectorCoefficient</text>
</a>
</g>
</g>
<!-- Node13&#45;&gt;Node12 -->
<g id="edge13_Node000012_Node000013" class="edge">
<title>Node13&#45;&gt;Node12</title>
<g id="a_edge13_Node000012_Node000013"><a xlink:title=" ">
<path fill="none" stroke="#63b8ff" d="M404.06,-217.6C432.34,-203.84 472.47,-184.32 497.17,-172.3"/>
<polygon fill="#63b8ff" stroke="#63b8ff" points="402.68,-214.38 395.21,-221.9 405.74,-220.68 402.68,-214.38"/>
</a>
</g>
</g>
<!-- Node14 -->
<g id="Node000014" class="node">
<title>Node14</title>
<g id="a_Node000014"><a xlink:href="classmfem_1_1Vector.html" target="_top" xlink:title="Vector data type.">
<polygon fill="white" stroke="#666666" points="568.25,-246 470.5,-246 470.5,-223 568.25,-223 568.25,-246"/>
<text xml:space="preserve" text-anchor="middle" x="519.38" y="-228.7" font-family="Helvetica,sans-Serif" font-size="14.00">mfem::Vector</text>
</a>
</g>
</g>
<!-- Node14&#45;&gt;Node12 -->
<g id="edge14_Node000012_Node000014" class="edge">
<title>Node14&#45;&gt;Node12</title>
<g id="a_edge14_Node000012_Node000014"><a xlink:title=" ">
<path fill="none" stroke="#9a32cd" stroke-dasharray="5,2" d="M519.38,-211.2C519.38,-198.17 519.38,-182.31 519.38,-172.07"/>
<polygon fill="#9a32cd" stroke="#9a32cd" points="515.88,-211.05 519.38,-221.05 522.88,-211.05 515.88,-211.05"/>
</a>
</g>
<text xml:space="preserve" text-anchor="middle" x="528.75" y="-191.7" font-family="Helvetica,sans-Serif" font-size="14.00" fill="grey"> dir</text>
</g>
<!-- Node15 -->
<g id="Node000015" class="node">
<title>Node15</title>
<g id="a_Node000015"><a xlink:href="classmfem_1_1Memory.html" target="_top" xlink:title=" ">
<polygon fill="white" stroke="#666666" points="602.75,-320 436,-320 436,-297 602.75,-297 602.75,-320"/>
<text xml:space="preserve" text-anchor="middle" x="519.38" y="-302.7" font-family="Helvetica,sans-Serif" font-size="14.00">mfem::Memory&lt; real_t &gt;</text>
</a>
</g>
</g>
<!-- Node15&#45;&gt;Node14 -->
<g id="edge15_Node000014_Node000015" class="edge">
<title>Node15&#45;&gt;Node14</title>
<g id="a_edge15_Node000014_Node000015"><a xlink:title=" ">
<path fill="none" stroke="#9a32cd" stroke-dasharray="5,2" d="M519.38,-285.2C519.38,-272.17 519.38,-256.31 519.38,-246.07"/>
<polygon fill="#9a32cd" stroke="#9a32cd" points="515.88,-285.05 519.38,-295.05 522.88,-285.05 515.88,-285.05"/>
</a>
</g>
<text xml:space="preserve" text-anchor="middle" x="534.38" y="-265.7" font-family="Helvetica,sans-Serif" font-size="14.00" fill="grey"> data</text>
</g>
</g>
</svg>

<g id="navigator" transform="translate(0 0)" fill="#404254">
  <rect fill="#f2f5e9" fill-opacity="0.5" stroke="#606060" stroke-width=".5" x="0" y="0" width="60" height="60"/>
  <use id="zoomplus" xlink:href="#zoomPlus" x="17" y="9" onmousedown="handleZoom(evt,'in')"/>
  <use id="zoomminus" xlink:href="#zoomMin" x="42" y="9" onmousedown="handleZoom(evt,'out')"/>
  <use id="reset" xlink:href="#resetDef" x="30" y="36" onmousedown="handleReset()"/>
   <use id="arrowup" xlink:href="#arrowUp" x="0" y="0" onmousedown="handlePan(0,-1)"/>
  <use id="arrowright" xlink:href="#arrowRight" x="0" y="0" onmousedown="handlePan(1,0)"/>
  <use id="arrowdown" xlink:href="#arrowDown" x="0" y="0" onmousedown="handlePan(0,1)"/>
  <use id="arrowleft" xlink:href="#arrowLeft" x="0" y="0" onmousedown="handlePan(-1,0)"/>
</g>
<svg viewBox="0 0 15 15" width="100%" height="30px" preserveAspectRatio="xMaxYMin meet">
 <g id="arrow_out" transform="scale(0.3 0.3)">
  <a xlink:href="classmfem_1_1VectorFEDomainLFDivIntegrator__coll__graph_org.svg" target="_base">
   <rect id="button" ry="5" rx="5" y="6" x="6" height="38" width="38"
        fill="#f2f5e9" fill-opacity="0.5" stroke="#606060" stroke-width="1.0"/>
   <path id="arrow"
     d="M 11.500037,31.436501 C 11.940474,20.09759 22.043105,11.32322 32.158766,21.979434 L 37.068811,17.246167 C 37.068811,17.246167 37.088388,32 37.088388,32 L 22.160133,31.978069 C 22.160133,31.978069 26.997745,27.140456 26.997745,27.140456 C 18.528582,18.264221 13.291696,25.230495 11.500037,31.436501 z"
     style="fill:#404040;"/>
  </a>
 </g>
</svg>

<style type='text/css'>
<![CDATA[
[data-mouse-over-selected='false'] { opacity: 0.7; }
[data-mouse-over-selected='true']  { opacity: 1.0; }
]]>
</style>
<script type="application/ecmascript"><![CDATA[
document.addEventListener('DOMContentLoaded', (event) => {
  highlightEdges();
  highlightAdjacentNodes();
});
]]></script>
</svg>
