<?xml version="1.0" encoding="UTF-8" standalone="no"?>
<!DOCTYPE svg PUBLIC "-//W3C//DTD SVG 1.1//EN"
 "http://www.w3.org/Graphics/SVG/1.1/DTD/svg11.dtd">
<!-- Generated by graphviz version 15.1.1 (20260805.0921)
 -->
<!-- Title: mfem::IPSolver Pages: 1 -->
<!--zoomable 484 -->

<svg id="main" version="1.1" xmlns="http://www.w3.org/2000/svg" xmlns:xlink="http://www.w3.org/1999/xlink" xml:space="preserve" onload="init(evt)">
<style type="text/css"><![CDATA[
.node, .edge {opacity: 0.7;}
.node.selected, .edge.selected {opacity: 1;}
.edge:hover path { stroke: red; }
.edge:hover polygon { stroke: red; fill: red; }
]]></style>

<defs>
  <circle id="rim" cx="0" cy="0" r="7"/>
  <circle id="rim2" cx="0" cy="0" r="3.5"/>
  <g id="zoomPlus">
    <use xlink:href="#rim" fill="#404040"><set attributeName="fill" to="#808080" begin="zoomplus.mouseover" end="zoomplus.mouseout"/></use>
    <path d="M-4,0h8M0,-4v8" fill="none" stroke="white" stroke-width="1.5" pointer-events="none"/>
  </g>
  <g id="zoomMin">
    <use xlink:href="#rim" fill="#404040"><set attributeName="fill" to="#808080" begin="zoomminus.mouseover" end="zoomminus.mouseout"/></use>
    <path d="M-4,0h8" fill="none" stroke="white" stroke-width="1.5" pointer-events="none"/>
  </g>
  <g id="arrowUp" transform="translate(30 24)">
    <use xlink:href="#rim"/>
    <path pointer-events="none" fill="none" stroke="white" stroke-width="1.5" d="M0,-3.0v7 M-2.5,-0.5L0,-3.0L2.5,-0.5"/>
  </g>
  <g id="arrowRight" transform="rotate(90) translate(36 -43)">
    <use xlink:href="#rim"/>
    <path pointer-events="none" fill="none" stroke="white" stroke-width="1.5" d="M0,-3.0v7 M-2.5,-0.5L0,-3.0L2.5,-0.5"/>
  </g>
  <g id="arrowDown" transform="rotate(180) translate(-30 -48)">
    <use xlink:href="#rim"/>
    <path pointer-events="none" fill="none" stroke="white" stroke-width="1.5" d="M0,-3.0v7 M-2.5,-0.5L0,-3.0L2.5,-0.5"/>
  </g>
  <g id="arrowLeft" transform="rotate(270) translate(-36 17)">
    <use xlink:href="#rim"/>
    <path pointer-events="none" fill="none" stroke="white" stroke-width="1.5" d="M0,-3.0v7 M-2.5,-0.5L0,-3.0L2.5,-0.5"/>
  </g>
  <g id="resetDef">
    <use xlink:href="#rim2" fill="#404040"><set attributeName="fill" to="#808080" begin="reset.mouseover" end="reset.mouseout"/></use>
  </g>
</defs>
<script type="application/ecmascript">
var viewWidth = 685;
var viewHeight = 484;
var sectionId = 'dynsection-0';
</script>
<script type="application/ecmascript" xlink:href="svg.min.js"/>
<svg id="graph" class="graph">
<g id="viewport">
<title>mfem::IPSolver</title>
<!-- Node1 -->
<g id="Node000001" class="node">
<title>Node1</title>
<g id="a_Node000001"><a xlink:title="Class for interior&#45;point solvers of contact&#45;problems described by a OptContactProblem.">
<polygon fill="#999999" stroke="#666666" points="676.5,-234.21 566.75,-234.21 566.75,-211.21 676.5,-211.21 676.5,-234.21"/>
<text xml:space="preserve" text-anchor="middle" x="621.62" y="-216.91" font-family="Helvetica,sans-Serif" font-size="14.00">mfem::IPSolver</text>
</a>
</g>
</g>
<!-- Node2 -->
<g id="Node000002" class="node">
<title>Node2</title>
<g id="a_Node000002"><a xlink:href="classmfem_1_1OptContactProblem.html" target="_top" xlink:title="Contact optimization problem with mortar and non&#45;mortar interfaces.">
<polygon fill="white" stroke="#666666" points="411.5,-464.21 232.75,-464.21 232.75,-441.21 411.5,-441.21 411.5,-464.21"/>
<text xml:space="preserve" text-anchor="middle" x="322.12" y="-446.91" font-family="Helvetica,sans-Serif" font-size="14.00">mfem::OptContactProblem</text>
</a>
</g>
</g>
<!-- Node2&#45;&gt;Node1 -->
<g id="edge1_Node000001_Node000002" class="edge">
<title>Node2&#45;&gt;Node1</title>
<g id="a_edge1_Node000001_Node000002"><a xlink:title=" ">
<path fill="none" stroke="#9a32cd" stroke-dasharray="5,2" d="M423.25,-461.34C466.04,-459.87 514.03,-450.73 548.75,-422.71 609.33,-373.82 618.88,-269.66 620.36,-234.55"/>
<polygon fill="#9a32cd" stroke="#9a32cd" points="423.36,-457.83 413.43,-461.52 423.49,-464.83 423.36,-457.83"/>
</a>
</g>
<text xml:space="preserve" text-anchor="middle" x="489.12" y="-462.42" font-family="Helvetica,sans-Serif" font-size="14.00" fill="grey"> problem</text>
</g>
<!-- Node3 -->
<g id="Node000003" class="node">
<title>Node3</title>
<g id="a_Node000003"><a xlink:href="classmfem_1_1Solver.html" target="_top" xlink:title="Base class for solvers.">
<polygon fill="white" stroke="#666666" points="370.62,-398.21 273.62,-398.21 273.62,-375.21 370.62,-375.21 370.62,-398.21"/>
<text xml:space="preserve" text-anchor="middle" x="322.12" y="-380.91" font-family="Helvetica,sans-Serif" font-size="14.00">mfem::Solver</text>
</a>
</g>
</g>
<!-- Node3&#45;&gt;Node1 -->
<g id="edge2_Node000001_Node000003" class="edge">
<title>Node3&#45;&gt;Node1</title>
<g id="a_edge2_Node000001_Node000003"><a xlink:title=" ">
<path fill="none" stroke="#9a32cd" stroke-dasharray="5,2" d="M382.15,-395.75C439.74,-403.26 522.42,-410.17 548.75,-392.71 604.3,-355.89 617.03,-266.68 619.85,-234.52"/>
<polygon fill="#9a32cd" stroke="#9a32cd" points="382.87,-392.31 372.49,-394.44 381.93,-399.25 382.87,-392.31"/>
</a>
</g>
<text xml:space="preserve" text-anchor="middle" x="489.12" y="-405.34" font-family="Helvetica,sans-Serif" font-size="14.00" fill="grey"> solver</text>
</g>
<!-- Node4 -->
<g id="Node000004" class="node">
<title>Node4</title>
<g id="a_Node000004"><a xlink:href="classmfem_1_1Operator.html" target="_top" xlink:title="Abstract operator.">
<polygon fill="white" stroke="#666666" points="139.75,-364.21 27,-364.21 27,-341.21 139.75,-341.21 139.75,-364.21"/>
<text xml:space="preserve" text-anchor="middle" x="83.38" y="-346.91" font-family="Helvetica,sans-Serif" font-size="14.00">mfem::Operator</text>
</a>
</g>
</g>
<!-- Node4&#45;&gt;Node3 -->
<g id="edge3_Node000003_Node000004" class="edge">
<title>Node4&#45;&gt;Node3</title>
<g id="a_edge3_Node000003_Node000004"><a xlink:title=" ">
<path fill="none" stroke="#63b8ff" d="M151.4,-362.34C190.25,-367.92 238.26,-374.81 273.29,-379.85"/>
<polygon fill="#63b8ff" stroke="#63b8ff" points="152.08,-358.9 141.68,-360.94 151.08,-365.83 152.08,-358.9"/>
</a>
</g>
</g>
<!-- Node10 -->
<g id="Node000010" class="node">
<title>Node10</title>
<g id="a_Node000010"><a xlink:href="classmfem_1_1HypreParMatrix.html" target="_top" xlink:title="Wrapper for hypre&#39;s ParCSR matrix class.">
<polygon fill="white" stroke="#666666" points="398.75,-332.21 245.5,-332.21 245.5,-309.21 398.75,-309.21 398.75,-332.21"/>
<text xml:space="preserve" text-anchor="middle" x="322.12" y="-314.91" font-family="Helvetica,sans-Serif" font-size="14.00">mfem::HypreParMatrix</text>
</a>
</g>
</g>
<!-- Node4&#45;&gt;Node10 -->
<g id="edge11_Node000010_Node000004" class="edge">
<title>Node4&#45;&gt;Node10</title>
<g id="a_edge11_Node000010_Node000004"><a xlink:title=" ">
<path fill="none" stroke="#63b8ff" d="M151.5,-343.64C180.67,-339.7 214.98,-335.06 245.09,-330.99"/>
<polygon fill="#63b8ff" stroke="#63b8ff" points="151.12,-340.16 141.68,-344.97 152.06,-347.1 151.12,-340.16"/>
</a>
</g>
</g>
<!-- Node5 -->
<g id="Node000005" class="node">
<title>Node5</title>
<g id="a_Node000005"><a xlink:href="classmfem_1_1Vector.html" target="_top" xlink:title="Vector data type.">
<polygon fill="white" stroke="#666666" points="371,-182.21 273.25,-182.21 273.25,-159.21 371,-159.21 371,-182.21"/>
<text xml:space="preserve" text-anchor="middle" x="322.12" y="-164.91" font-family="Helvetica,sans-Serif" font-size="14.00">mfem::Vector</text>
</a>
</g>
</g>
<!-- Node5&#45;&gt;Node1 -->
<g id="edge4_Node000001_Node000005" class="edge">
<title>Node5&#45;&gt;Node1</title>
<g id="a_edge4_Node000001_Node000005"><a xlink:title=" ">
<path fill="none" stroke="#9a32cd" stroke-dasharray="5,2" d="M382.83,-162.77C429.18,-158.72 494.46,-157.73 548.75,-174.71 571.95,-181.97 594.57,-199.27 608.05,-210.99"/>
<polygon fill="#9a32cd" stroke="#9a32cd" points="382.6,-159.27 372.98,-163.71 383.27,-166.24 382.6,-159.27"/>
</a>
</g>
<text xml:space="preserve" text-anchor="middle" x="489.12" y="-236.41" font-family="Helvetica,sans-Serif" font-size="14.00" fill="grey"> Mcslump</text>
<text xml:space="preserve" text-anchor="middle" x="489.12" y="-221.41" font-family="Helvetica,sans-Serif" font-size="14.00" fill="grey">Mlump</text>
<text xml:space="preserve" text-anchor="middle" x="489.12" y="-206.41" font-family="Helvetica,sans-Serif" font-size="14.00" fill="grey">Mvlump</text>
<text xml:space="preserve" text-anchor="middle" x="489.12" y="-191.41" font-family="Helvetica,sans-Serif" font-size="14.00" fill="grey">lk</text>
<text xml:space="preserve" text-anchor="middle" x="489.12" y="-176.41" font-family="Helvetica,sans-Serif" font-size="14.00" fill="grey">zlk</text>
</g>
<!-- Node6 -->
<g id="Node000006" class="node">
<title>Node6</title>
<g id="a_Node000006"><a xlink:href="classmfem_1_1Memory.html" target="_top" xlink:title=" ">
<polygon fill="white" stroke="#666666" points="166.75,-161.21 0,-161.21 0,-138.21 166.75,-138.21 166.75,-161.21"/>
<text xml:space="preserve" text-anchor="middle" x="83.38" y="-143.91" font-family="Helvetica,sans-Serif" font-size="14.00">mfem::Memory&lt; real_t &gt;</text>
</a>
</g>
</g>
<!-- Node6&#45;&gt;Node5 -->
<g id="edge5_Node000005_Node000006" class="edge">
<title>Node6&#45;&gt;Node5</title>
<g id="a_edge5_Node000005_Node000006"><a xlink:title=" ">
<path fill="none" stroke="#9a32cd" stroke-dasharray="5,2" d="M178.5,-158.06C210.84,-160.93 245.72,-164.03 272.88,-166.44"/>
<polygon fill="#9a32cd" stroke="#9a32cd" points="178.96,-154.59 168.69,-157.19 178.34,-161.56 178.96,-154.59"/>
</a>
</g>
<text xml:space="preserve" text-anchor="middle" x="199.75" y="-162.54" font-family="Helvetica,sans-Serif" font-size="14.00" fill="grey"> data</text>
</g>
<!-- Node7 -->
<g id="Node000007" class="node">
<title>Node7</title>
<g id="a_Node000007"><a xlink:href="classmfem_1_1Array.html" target="_top" xlink:title=" ">
<polygon fill="white" stroke="#666666" points="396.5,-138.21 247.75,-138.21 247.75,-115.21 396.5,-115.21 396.5,-138.21"/>
<text xml:space="preserve" text-anchor="middle" x="322.12" y="-120.91" font-family="Helvetica,sans-Serif" font-size="14.00">mfem::Array&lt; real_t &gt;</text>
</a>
</g>
</g>
<!-- Node6&#45;&gt;Node7 -->
<g id="edge7_Node000007_Node000006" class="edge">
<title>Node6&#45;&gt;Node7</title>
<g id="a_edge7_Node000007_Node000006"><a xlink:title=" ">
<path fill="none" stroke="#9a32cd" stroke-dasharray="5,2" d="M178.48,-140.33C180.59,-140.12 182.68,-139.92 184.75,-139.71 205.11,-137.73 227.18,-135.61 247.51,-133.67"/>
<polygon fill="#9a32cd" stroke="#9a32cd" points="178.2,-136.84 168.59,-141.3 178.88,-143.8 178.2,-136.84"/>
</a>
</g>
<text xml:space="preserve" text-anchor="middle" x="199.75" y="-141.41" font-family="Helvetica,sans-Serif" font-size="14.00" fill="grey"> data</text>
</g>
<!-- Node7&#45;&gt;Node1 -->
<g id="edge6_Node000001_Node000007" class="edge">
<title>Node7&#45;&gt;Node1</title>
<g id="a_edge6_Node000001_Node000007"><a xlink:title=" ">
<path fill="none" stroke="#9a32cd" stroke-dasharray="5,2" d="M382.36,-112.81C429.91,-104.8 497.03,-100.83 548.75,-126.71 584.31,-144.51 606.82,-189.19 615.95,-210.73"/>
<polygon fill="#9a32cd" stroke="#9a32cd" points="382.03,-109.31 372.81,-114.53 383.27,-116.2 382.03,-109.31"/>
</a>
</g>
<text xml:space="preserve" text-anchor="middle" x="489.12" y="-143.41" font-family="Helvetica,sans-Serif" font-size="14.00" fill="grey"> F1</text>
<text xml:space="preserve" text-anchor="middle" x="489.12" y="-128.41" font-family="Helvetica,sans-Serif" font-size="14.00" fill="grey">F2</text>
</g>
<!-- Node8 -->
<g id="Node000008" class="node">
<title>Node8</title>
<g id="a_Node000008"><a xlink:href="classmfem_1_1Array.html" target="_top" xlink:title=" ">
<polygon fill="white" stroke="#666666" points="386.75,-34.21 257.5,-34.21 257.5,-11.21 386.75,-11.21 386.75,-34.21"/>
<text xml:space="preserve" text-anchor="middle" x="322.12" y="-16.91" font-family="Helvetica,sans-Serif" font-size="14.00">mfem::Array&lt; int &gt;</text>
</a>
</g>
</g>
<!-- Node8&#45;&gt;Node1 -->
<g id="edge8_Node000001_Node000008" class="edge">
<title>Node8&#45;&gt;Node1</title>
<g id="a_edge8_Node000001_Node000008"><a xlink:title=" ">
<path fill="none" stroke="#9a32cd" stroke-dasharray="5,2" d="M375.99,-8.3C425.36,1.82 498.75,7.97 548.75,-27.71 610.71,-71.94 619.36,-175.73 620.49,-210.86"/>
<polygon fill="#9a32cd" stroke="#9a32cd" points="375.42,-4.85 366.39,-10.4 376.91,-11.69 375.42,-4.85"/>
</a>
</g>
<text xml:space="preserve" text-anchor="middle" x="489.12" y="-89.41" font-family="Helvetica,sans-Serif" font-size="14.00" fill="grey"> block_offsetsuml</text>
<text xml:space="preserve" text-anchor="middle" x="489.12" y="-74.41" font-family="Helvetica,sans-Serif" font-size="14.00" fill="grey">block_offsetsumlz</text>
<text xml:space="preserve" text-anchor="middle" x="489.12" y="-59.41" font-family="Helvetica,sans-Serif" font-size="14.00" fill="grey">block_offsetsx</text>
<text xml:space="preserve" text-anchor="middle" x="489.12" y="-44.41" font-family="Helvetica,sans-Serif" font-size="14.00" fill="grey">constraint_offsets</text>
<text xml:space="preserve" text-anchor="middle" x="489.12" y="-29.41" font-family="Helvetica,sans-Serif" font-size="14.00" fill="grey">lin_solver_iterations</text>
</g>
<!-- Node9 -->
<g id="Node000009" class="node">
<title>Node9</title>
<g id="a_Node000009"><a xlink:href="classmfem_1_1Memory.html" target="_top" xlink:title=" ">
<polygon fill="white" stroke="#666666" points="157,-34.21 9.75,-34.21 9.75,-11.21 157,-11.21 157,-34.21"/>
<text xml:space="preserve" text-anchor="middle" x="83.38" y="-16.91" font-family="Helvetica,sans-Serif" font-size="14.00">mfem::Memory&lt; int &gt;</text>
</a>
</g>
</g>
<!-- Node9&#45;&gt;Node8 -->
<g id="edge9_Node000008_Node000009" class="edge">
<title>Node9&#45;&gt;Node8</title>
<g id="a_edge9_Node000008_Node000009"><a xlink:title=" ">
<path fill="none" stroke="#9a32cd" stroke-dasharray="5,2" d="M168.76,-22.71C197.88,-22.71 230,-22.71 257.21,-22.71"/>
<polygon fill="#9a32cd" stroke="#9a32cd" points="168.85,-19.21 158.85,-22.71 168.85,-26.21 168.85,-19.21"/>
</a>
</g>
<text xml:space="preserve" text-anchor="middle" x="199.75" y="-24.41" font-family="Helvetica,sans-Serif" font-size="14.00" fill="grey"> data</text>
</g>
<!-- Node10&#45;&gt;Node1 -->
<g id="edge10_Node000001_Node000010" class="edge">
<title>Node10&#45;&gt;Node1</title>
<g id="a_edge10_Node000001_Node000010"><a xlink:title=" ">
<path fill="none" stroke="#9a32cd" stroke-dasharray="5,2" d="M355.48,-303.73C376.17,-293.47 403.84,-280.85 429.5,-272.71 480.95,-256.39 496.8,-264.37 548.75,-249.71 563.38,-245.59 579.23,-239.78 592.31,-234.61"/>
<polygon fill="#9a32cd" stroke="#9a32cd" points="354.05,-300.53 346.7,-308.16 357.2,-306.78 354.05,-300.53"/>
</a>
</g>
<text xml:space="preserve" text-anchor="middle" x="489.12" y="-379.41" font-family="Helvetica,sans-Serif" font-size="14.00" fill="grey"> Hmm</text>
<text xml:space="preserve" text-anchor="middle" x="489.12" y="-364.41" font-family="Helvetica,sans-Serif" font-size="14.00" fill="grey">Huu</text>
<text xml:space="preserve" text-anchor="middle" x="489.12" y="-349.41" font-family="Helvetica,sans-Serif" font-size="14.00" fill="grey">Jm</text>
<text xml:space="preserve" text-anchor="middle" x="489.12" y="-334.41" font-family="Helvetica,sans-Serif" font-size="14.00" fill="grey">JmT</text>
<text xml:space="preserve" text-anchor="middle" x="489.12" y="-319.41" font-family="Helvetica,sans-Serif" font-size="14.00" fill="grey">Ju</text>
<text xml:space="preserve" text-anchor="middle" x="489.12" y="-304.41" font-family="Helvetica,sans-Serif" font-size="14.00" fill="grey">JuT</text>
<text xml:space="preserve" text-anchor="middle" x="489.12" y="-289.41" font-family="Helvetica,sans-Serif" font-size="14.00" fill="grey">Wmm</text>
<text xml:space="preserve" text-anchor="middle" x="489.12" y="-274.41" font-family="Helvetica,sans-Serif" font-size="14.00" fill="grey">Wuu</text>
</g>
</g>
</svg>

<g id="navigator" transform="translate(0 0)" fill="#404254">
  <rect fill="#f2f5e9" fill-opacity="0.5" stroke="#606060" stroke-width=".5" x="0" y="0" width="60" height="60"/>
  <use id="zoomplus" xlink:href="#zoomPlus" x="17" y="9" onmousedown="handleZoom(evt,'in')"/>
  <use id="zoomminus" xlink:href="#zoomMin" x="42" y="9" onmousedown="handleZoom(evt,'out')"/>
  <use id="reset" xlink:href="#resetDef" x="30" y="36" onmousedown="handleReset()"/>
   <use id="arrowup" xlink:href="#arrowUp" x="0" y="0" onmousedown="handlePan(0,-1)"/>
  <use id="arrowright" xlink:href="#arrowRight" x="0" y="0" onmousedown="handlePan(1,0)"/>
  <use id="arrowdown" xlink:href="#arrowDown" x="0" y="0" onmousedown="handlePan(0,1)"/>
  <use id="arrowleft" xlink:href="#arrowLeft" x="0" y="0" onmousedown="handlePan(-1,0)"/>
</g>
<svg viewBox="0 0 15 15" width="100%" height="30px" preserveAspectRatio="xMaxYMin meet">
 <g id="arrow_out" transform="scale(0.3 0.3)">
  <a xlink:href="classmfem_1_1IPSolver__coll__graph_org.svg" target="_base">
   <rect id="button" ry="5" rx="5" y="6" x="6" height="38" width="38"
        fill="#f2f5e9" fill-opacity="0.5" stroke="#606060" stroke-width="1.0"/>
   <path id="arrow"
     d="M 11.500037,31.436501 C 11.940474,20.09759 22.043105,11.32322 32.158766,21.979434 L 37.068811,17.246167 C 37.068811,17.246167 37.088388,32 37.088388,32 L 22.160133,31.978069 C 22.160133,31.978069 26.997745,27.140456 26.997745,27.140456 C 18.528582,18.264221 13.291696,25.230495 11.500037,31.436501 z"
     style="fill:#404040;"/>
  </a>
 </g>
</svg>

<style type='text/css'>
<![CDATA[
[data-mouse-over-selected='false'] { opacity: 0.7; }
[data-mouse-over-selected='true']  { opacity: 1.0; }
]]>
</style>
<script type="application/ecmascript"><![CDATA[
document.addEventListener('DOMContentLoaded', (event) => {
  highlightEdges();
  highlightAdjacentNodes();
});
]]></script>
</svg>
